<svg width="36" height="36" viewBox="0 0 36 36" fill="none" xmlns="http://www.w3.org/2000/svg">
<path d="M17.6236 0.376465C7.89178 0.376465 0 8.26824 0 18.0001C0 27.7348 7.89178 35.6238 17.6236 35.6238C27.3583 35.6238 35.2473 27.732 35.2473 18.0001C35.2473 8.26824 27.3583 0.376465 17.6236 0.376465ZM30.0888 18.4863C27.5138 20.0522 28.0311 24.1705 27.0418 26.6155C26.6941 27.4748 26.0807 28.204 25.0914 27.8026C23.6668 27.2204 23.6527 25.9117 23.3701 24.603C23.0394 23.054 22.621 21.522 22.1179 20.0183C21.9624 19.5519 21.7928 19.077 21.4734 18.7039C21.154 18.3308 20.6481 18.0764 20.1676 18.1895C19.6475 18.311 19.3111 18.8085 19.0906 19.2947C18.3529 20.9058 18.4603 28.7241 15.4613 27.8055C14.6558 27.5596 14.1131 26.802 13.7823 26.0276C12.8552 23.8596 13.0474 21.1461 11.4137 19.4473C10.6194 18.6191 9.49161 18.1754 8.35533 18.0058C6.81485 17.774 5.24328 17.9888 3.68867 18.0142C4.22854 17.9294 4.72885 17.774 5.15283 17.5168C7.72783 15.9509 7.2134 11.8354 8.19987 9.38756C8.54754 8.52829 9.1609 7.79903 10.1502 8.2004C11.5748 8.78268 11.5889 10.0914 11.8716 11.4001C12.2023 12.949 12.6234 14.481 13.1238 15.9876C13.2792 16.454 13.4488 16.9288 13.7682 17.302C14.0876 17.6751 14.5936 17.9294 15.0741 17.8164C15.5942 17.6948 15.9305 17.1974 16.151 16.7112C16.8887 15.1001 16.7813 7.28177 19.7803 8.2004C20.5859 8.44631 21.1286 9.20383 21.4593 9.97831C22.3864 12.1463 22.1942 14.8598 23.828 16.5586C24.6222 17.3839 25.75 17.8305 26.8863 18.0001C28.4268 18.2319 30.0012 18.0171 31.553 17.9916C31.0131 18.0793 30.5128 18.2319 30.0888 18.4919V18.4863Z" fill="#F8F3E5"/>
</svg>
